<svg xmlns="http://www.w3.org/2000/svg" width="1200" height="310" viewBox="0 0 1200 310"><rect width="1200" height="310" rx="26" fill="#f0f2f5" stroke="#e8eaed"/><text x="65" y="62" fill="#0d0d0f" font-family="Arial" font-size="24" font-weight="700">One business event, many channels</text><text x="65" y="88" fill="#9ca3af" font-family="monospace" font-size="13">one server-side domain model drives web, APIs, bots and Mini Apps</text><g transform="translate(65 118)"><rect width="199.6" height="120" rx="18" fill="#ffffff" stroke="#e8eaed"/><circle cx="99.8" cy="34" r="18" fill="#0F4158" opacity="0.18"/><text x="99.8" y="40" text-anchor="middle" fill="#0F4158" font-family="monospace" font-size="13">01</text><text x="99.8" y="82" text-anchor="middle" fill="#0d0d0f" font-family="Arial" font-size="16" font-weight="700">Create</text></g><g transform="translate(282.6 118)"><rect width="199.6" height="120" rx="18" fill="#ffffff" stroke="#e8eaed"/><circle cx="99.8" cy="34" r="18" fill="#0F4158" opacity="0.22999999999999998"/><text x="99.8" y="40" text-anchor="middle" fill="#0F4158" font-family="monospace" font-size="13">02</text><text x="99.8" y="82" text-anchor="middle" fill="#0d0d0f" font-family="Arial" font-size="16" font-weight="700">Validate</text></g><g transform="translate(500.2 118)"><rect width="199.6" height="120" rx="18" fill="#ffffff" stroke="#e8eaed"/><circle cx="99.8" cy="34" r="18" fill="#0F4158" opacity="0.28"/><text x="99.8" y="40" text-anchor="middle" fill="#0F4158" font-family="monospace" font-size="13">03</text><text x="99.8" y="82" text-anchor="middle" fill="#0d0d0f" font-family="Arial" font-size="16" font-weight="700">Persist</text></g><g transform="translate(717.8 118)"><rect width="199.6" height="120" rx="18" fill="#ffffff" stroke="#e8eaed"/><circle cx="99.8" cy="34" r="18" fill="#0F4158" opacity="0.33"/><text x="99.8" y="40" text-anchor="middle" fill="#0F4158" font-family="monospace" font-size="13">04</text><text x="99.8" y="82" text-anchor="middle" fill="#0d0d0f" font-family="Arial" font-size="16" font-weight="700">Publish</text></g><g transform="translate(935.4 118)"><rect width="199.6" height="120" rx="18" fill="#ffffff" stroke="#e8eaed"/><circle cx="99.8" cy="34" r="18" fill="#0F4158" opacity="0.38"/><text x="99.8" y="40" text-anchor="middle" fill="#0F4158" font-family="monospace" font-size="13">05</text><text x="99.8" y="82" text-anchor="middle" fill="#0d0d0f" font-family="Arial" font-size="16" font-weight="700">Notify</text></g><path d="M267.6 178h12" stroke="#6b7280" stroke-width="2"/><path d="M275.6 173l6 5-6 5" fill="none" stroke="#6b7280" stroke-width="2"/><path d="M485.20000000000005 178h12" stroke="#6b7280" stroke-width="2"/><path d="M493.20000000000005 173l6 5-6 5" fill="none" stroke="#6b7280" stroke-width="2"/><path d="M702.8 178h12" stroke="#6b7280" stroke-width="2"/><path d="M710.8 173l6 5-6 5" fill="none" stroke="#6b7280" stroke-width="2"/><path d="M920.4 178h12" stroke="#6b7280" stroke-width="2"/><path d="M928.4 173l6 5-6 5" fill="none" stroke="#6b7280" stroke-width="2"/></svg>